<?xml version="1.0" standalone="no"?>
<!DOCTYPE svg PUBLIC "-//W3C//DTD SVG 20010904//EN"
 "http://www.w3.org/TR/2001/REC-SVG-20010904/DTD/svg10.dtd">
<svg version="1.0" xmlns="http://www.w3.org/2000/svg"
 width="512.000000pt" height="512.000000pt" viewBox="0 0 512.000000 512.000000"
 preserveAspectRatio="xMidYMid meet">
<metadata>
Created by potrace 1.14, written by Peter Selinger 2001-2017
</metadata>
<g transform="translate(0.000000,512.000000) scale(0.100000,-0.100000)"
fill="#000000" stroke="none">
<path d="M4356 4812 c-104 -30 -179 -144 -169 -257 19 -201 269 -294 412 -153
103 100 100 264 -6 359 -65 59 -148 77 -237 51z"/>
<path d="M2497 4724 c-1 -1 -41 -5 -89 -9 -47 -3 -97 -8 -110 -10 -12 -3 -59
-12 -103 -20 -44 -9 -87 -17 -95 -19 -62 -11 -223 -65 -340 -113 -120 -49
-310 -155 -392 -217 -61 -47 -115 -86 -120 -86 -2 0 -4 44 -3 98 3 136 -19
181 -87 187 -18 1 -43 -2 -56 -8 -48 -22 -52 -48 -52 -305 l0 -239 25 -27 c13
-14 28 -27 32 -28 22 -4 452 -6 475 -2 44 8 70 39 75 88 5 40 2 48 -25 76 -32
32 -49 35 -177 30 l-50 -2 25 19 c185 143 495 288 725 339 167 37 282 49 460
49 162 -1 247 -9 403 -41 282 -58 567 -190 808 -376 154 -119 365 -353 449
-498 64 -113 120 -220 148 -290 62 -150 118 -354 133 -480 3 -25 9 -73 13
-108 8 -70 6 -311 -3 -387 -4 -27 -9 -70 -12 -95 -5 -41 -56 -245 -85 -345
-23 -78 35 -144 111 -129 42 9 64 40 93 129 86 265 118 555 93 845 -9 106 -12
125 -31 220 -2 14 -7 36 -9 50 -41 218 -170 522 -309 731 -258 389 -621 678
-1057 842 -109 41 -305 93 -387 103 -13 1 -40 5 -60 8 -79 13 -142 18 -276 20
-75 1 -138 1 -140 0z"/>
<path d="M381 4209 c-71 -66 -29 -169 69 -169 46 0 90 47 90 95 0 79 -102 126
-159 74z"/>
<path d="M3170 4129 c-64 -26 -86 -86 -51 -142 21 -34 44 -47 89 -47 58 0 105
75 83 132 -17 46 -77 74 -121 57z"/>
<path d="M4540 4028 c-30 -10 -60 -55 -60 -90 0 -44 35 -85 78 -93 84 -14 143
64 106 137 -22 43 -76 63 -124 46z"/>
<path d="M2446 3897 c-14 -61 -35 -155 -47 -207 l-21 -96 -67 -18 c-36 -10
-113 -41 -170 -69 -79 -38 -108 -48 -120 -40 -198 127 -282 179 -307 194 l-30
19 -65 -64 c-35 -34 -79 -79 -97 -98 l-34 -36 89 -138 c49 -77 99 -156 112
-176 l23 -38 -50 -102 c-27 -57 -58 -133 -68 -170 l-18 -67 -76 -17 c-41 -10
-80 -18 -85 -20 -6 -1 -63 -13 -127 -28 -65 -14 -119 -26 -121 -26 -2 0 -5
-61 -5 -135 -2 -158 -15 -142 143 -175 55 -12 114 -25 130 -30 17 -4 55 -13
85 -20 l56 -12 17 -67 c10 -36 40 -112 68 -168 l51 -103 -109 -172 c-59 -95
-109 -175 -111 -178 -1 -3 41 -50 94 -103 87 -88 98 -96 117 -85 12 6 83 50
157 98 196 126 166 118 273 66 88 -43 205 -86 234 -86 7 0 13 -6 14 -12 0 -7
2 -20 4 -28 2 -8 20 -87 39 -175 20 -88 38 -170 41 -182 5 -22 9 -22 140 -21
76 0 138 5 142 11 3 5 25 97 49 205 24 107 45 196 46 197 2 1 37 12 78 24 41
13 117 43 167 68 l93 45 37 -23 c21 -13 101 -63 177 -112 l139 -88 99 99 99
98 -49 75 c-27 41 -56 88 -66 104 -9 17 -38 64 -65 105 -47 74 -48 75 -31 100
30 45 78 153 100 230 13 41 23 76 24 77 2 2 389 90 407 92 4 1 6 62 6 137 0
112 -3 137 -16 143 -13 7 -90 26 -150 37 -8 2 -44 10 -80 18 -37 8 -90 20
-118 26 -29 7 -53 16 -53 21 0 40 -75 228 -117 294 l-20 30 56 90 c30 50 58
92 62 95 3 3 12 16 19 30 7 14 31 52 52 84 l39 59 -99 100 -99 99 -166 -106
c-91 -58 -172 -109 -180 -112 -8 -3 -50 13 -92 35 -42 22 -115 53 -163 67
-102 32 -91 26 -97 53 -3 11 -7 29 -9 39 -3 9 -17 71 -31 137 -15 66 -28 125
-29 130 -2 6 -6 26 -10 46 l-8 35 -138 2 -138 2 -26 -113z m348 -795 c344
-125 490 -522 306 -833 -68 -116 -190 -213 -317 -255 -82 -27 -264 -27 -346 0
-179 59 -328 214 -379 395 -23 81 -25 214 -4 294 53 195 215 358 412 412 76
21 255 14 328 -13z"/>
<path d="M2528 2717 c-130 -66 -129 -248 2 -315 118 -61 255 24 255 158 -1
135 -136 218 -257 157z"/>
<path d="M664 3445 c-17 -7 -37 -23 -45 -36 -36 -56 -124 -343 -145 -475 -27
-171 -38 -475 -20 -599 21 -155 27 -188 30 -194 2 -3 7 -22 10 -41 12 -71 57
-224 96 -324 212 -543 639 -982 1180 -1214 181 -77 436 -141 640 -159 145 -12
417 -6 511 12 13 3 51 10 84 15 308 55 627 194 903 396 36 26 62 40 63 32 0
-7 1 -57 1 -111 0 -89 2 -100 24 -127 14 -16 38 -31 54 -35 42 -9 96 19 109
57 15 43 15 469 0 502 -23 49 -54 54 -304 52 -162 -1 -237 -5 -252 -14 -42
-23 -59 -80 -37 -124 25 -48 50 -58 148 -58 105 0 106 2 -24 -85 -214 -143
-503 -256 -755 -295 -38 -6 -81 -13 -95 -16 -14 -3 -99 -7 -190 -8 -316 -6
-607 55 -879 185 -110 52 -243 128 -249 141 -2 5 -8 8 -13 8 -34 0 -309 246
-418 375 -49 58 -175 245 -219 325 -72 133 -169 393 -186 504 -4 21 -8 41 -10
45 -2 3 -7 29 -10 56 -4 28 -11 77 -15 110 -11 79 -11 353 0 433 28 197 65
350 120 490 32 79 32 123 1 155 -27 27 -74 37 -108 22z"/>
<path d="M988 3334 c-41 -22 -59 -63 -48 -106 15 -51 44 -73 97 -73 38 0 49 5
69 30 44 55 25 132 -38 154 -39 14 -47 13 -80 -5z"/>
<path d="M984 2051 c-76 -46 -53 -163 35 -177 35 -6 86 17 101 45 27 52 1 122
-52 140 -41 15 -48 14 -84 -8z"/>
<path d="M392 1460 c-79 -48 -49 -166 45 -177 35 -4 44 0 71 27 83 82 -17 210
-116 150z"/>
<path d="M3138 1157 c-70 -65 -27 -170 69 -170 66 0 109 76 79 139 -26 57
-103 72 -148 31z"/>
<path d="M4427 1069 c-24 -14 -47 -63 -45 -95 4 -44 49 -84 95 -84 50 0 80 22
94 69 9 31 8 43 -5 70 -24 46 -94 66 -139 40z"/>
<path d="M692 880 c-54 -12 -101 -51 -128 -106 -95 -193 146 -372 307 -227 42
38 69 106 63 159 -14 120 -126 201 -242 174z"/>
<path d="M1459 461 c-22 -23 -29 -39 -29 -68 0 -100 139 -132 183 -42 47 97
-78 186 -154 110z"/>
</g>
</svg>
